<?xml version="1.0" encoding="UTF-8"?>
<!DOCTYPE svg PUBLIC "-//W3C//DTD SVG 1.1//EN" "http://www.w3.org/Graphics/SVG/1.1/DTD/svg11.dtd">
<svg xmlns="http://www.w3.org/2000/svg" version="1.1" width="264px" height="329px" style="shape-rendering:geometricPrecision; text-rendering:geometricPrecision; image-rendering:optimizeQuality; fill-rule:evenodd; clip-rule:evenodd" xmlns:xlink="http://www.w3.org/1999/xlink">
<g><path style="opacity:0.898" fill="#e87165" d="M 87.5,45.5 C 84.4273,43.4656 81.094,41.7989 77.5,40.5C 75.6455,40.3402 74.3121,41.0069 73.5,42.5C 72.8333,42.8333 72.1667,43.1667 71.5,43.5C 72.2122,40.6219 74.0456,38.9552 77,38.5C 81.6214,39.2224 85.1214,41.5557 87.5,45.5 Z"/></g>
<g><path style="opacity:0.388" fill="#ed7b71" d="M 87.5,45.5 C 89.1667,46.5 90.5,47.8333 91.5,49.5C 89.1667,49.1667 87.8333,47.8333 87.5,45.5 Z"/></g>
<g><path style="opacity:1" fill="#010101" d="M 62.5,47.5 C 64.8333,49.1667 66.8333,51.1667 68.5,53.5C 68.9731,54.9063 69.9731,55.573 71.5,55.5C 71.5,56.8333 71.5,58.1667 71.5,59.5C 74.2921,59.6225 76.2921,60.9558 77.5,63.5C 78.5,66.5 80.5,68.5 83.5,69.5C 86.5,73.1667 89.8333,76.5 93.5,79.5C 94.8333,81.5 96.5,83.1667 98.5,84.5C 99.4023,86.3407 100.736,87.674 102.5,88.5C 103.833,90.5 105.5,92.1667 107.5,93.5C 107.5,94.8333 108.167,95.5 109.5,95.5C 109.833,96.1667 110.167,96.8333 110.5,97.5C 113.833,101.5 117.5,105.167 121.5,108.5C 123.167,110.833 125.167,112.833 127.5,114.5C 131.167,118.833 135.167,122.833 139.5,126.5C 140.6,127.605 141.267,128.938 141.5,130.5C 143.543,133.543 146.21,135.876 149.5,137.5C 151.5,140.167 153.833,142.5 156.5,144.5C 160.167,148.833 164.167,152.833 168.5,156.5C 173.129,162.797 178.462,168.463 184.5,173.5C 186.473,174.806 188.139,176.473 189.5,178.5C 193.599,182.588 197.265,186.921 200.5,191.5C 200.5,194.167 200.5,196.833 200.5,199.5C 198.518,201.502 196.852,203.835 195.5,206.5C 195.5,207.167 195.5,207.833 195.5,208.5C 193.469,209.539 192.136,211.205 191.5,213.5C 191.167,214.833 190.833,216.167 190.5,217.5C 188.469,218.539 187.136,220.205 186.5,222.5C 185.326,223.514 184.66,224.847 184.5,226.5C 181.579,229.242 179.579,232.575 178.5,236.5C 176.386,242.294 173.386,247.627 169.5,252.5C 168.094,252.973 167.427,253.973 167.5,255.5C 166.833,257.167 166.167,258.833 165.5,260.5C 162.55,262.728 160.884,265.728 160.5,269.5C 157.386,277.884 151.719,279.884 143.5,275.5C 128.677,271.044 113.677,267.377 98.5,264.5C 88.8326,261.062 78.8326,258.562 68.5,257C 65.9774,255.64 63.9774,253.807 62.5,251.5C 61.0615,244.788 60.0615,238.121 59.5,231.5C 59.5,229.167 59.5,226.833 59.5,224.5C 59.3951,207.654 58.7284,190.987 57.5,174.5C 56.5682,145.355 55.5682,116.355 54.5,87.5C 53.7387,74.8481 53.4053,62.1815 53.5,49.5C 56.1625,47.7319 59.1625,47.0653 62.5,47.5 Z"/></g>
<g><path style="opacity:0.157" fill="#97999b" d="M 62.5,47.5 C 59.1625,47.0653 56.1625,47.7319 53.5,49.5C 54.1081,47.0095 55.7748,45.6762 58.5,45.5C 60.1705,45.6682 61.5039,46.3349 62.5,47.5 Z"/></g>
<g><path style="opacity:0.494" fill="#ee6962" d="M 91.5,49.5 C 93.5,50.8333 95.1667,52.5 96.5,54.5C 93.8333,53.8333 92.1667,52.1667 91.5,49.5 Z"/></g>
<g><path style="opacity:0.263" fill="#ef8e8a" d="M 71.5,43.5 C 71.5,47.5 71.5,51.5 71.5,55.5C 69.9731,55.573 68.9731,54.9063 68.5,53.5C 70.1187,50.4521 71.1187,47.1188 71.5,43.5 Z"/></g>
<g><path style="opacity:1" fill="#bb1612" d="M 73.5,42.5 C 72.4604,46.7799 72.2938,51.1132 73,55.5C 75.7015,58.6989 78.2015,62.0322 80.5,65.5C 79.5,64.8333 78.5,64.1667 77.5,63.5C 76.2921,60.9558 74.2921,59.6225 71.5,59.5C 71.5,58.1667 71.5,56.8333 71.5,55.5C 71.5,51.5 71.5,47.5 71.5,43.5C 72.1667,43.1667 72.8333,42.8333 73.5,42.5 Z"/></g>
<g><path style="opacity:1" fill="#04a3ac" d="M 53.5,49.5 C 53.4053,62.1815 53.7387,74.8481 54.5,87.5C 54.2518,119.525 54.9185,151.525 56.5,183.5C 55.8319,205.451 56.3319,227.451 58,249.5C 61.0024,256.07 66.1691,259.736 73.5,260.5C 74.6405,261.425 74.6405,262.259 73.5,263C 74.8333,263.667 76.1667,264.333 77.5,265C 70.1667,265.667 62.8333,265.667 55.5,265C 50.4598,262.572 45.1265,261.072 39.5,260.5C 39.3256,257.126 38.8256,253.793 38,250.5C 37.8329,188.332 37.3329,126.332 36.5,64.5C 36.307,60.4338 36.6403,56.4338 37.5,52.5C 38.7358,50.9572 40.4024,49.9572 42.5,49.5C 46.0556,50.8624 49.2223,52.8624 52,55.5C 52.1909,53.2922 52.6909,51.2922 53.5,49.5 Z"/></g>
<g><path style="opacity:0.498" fill="#a5f9e9" d="M 29.5,61.5 C 26.8333,61.5 24.1667,61.5 21.5,61.5C 24.1667,58.8333 26.8333,58.8333 29.5,61.5 Z"/></g>
<g><path style="opacity:0.361" fill="#9deee7" d="M 37.5,52.5 C 36.6403,56.4338 36.307,60.4338 36.5,64.5C 35.6618,64.8417 35.3284,65.5084 35.5,66.5C 33.6675,65.7515 32.0009,64.7515 30.5,63.5C 30.5,62.8333 30.5,62.1667 30.5,61.5C 31.7942,62.2899 32.9609,63.2899 34,64.5C 34.3884,60.7808 35.0551,57.1141 36,53.5C 36.3826,52.944 36.8826,52.6107 37.5,52.5 Z"/></g>
<g><path style="opacity:0.243" fill="#f3837c" d="M 104.5,61.5 C 106.833,63.1667 108.833,65.1667 110.5,67.5C 110.167,67.5 109.833,67.5 109.5,67.5C 107.833,66.1667 106.167,64.8333 104.5,63.5C 104.5,62.8333 104.5,62.1667 104.5,61.5 Z"/></g>
<g><path style="opacity:1" fill="#03fac5" d="M 30.5,63.5 C 30.7619,65.5638 31.9286,66.8971 34,67.5C 34.8145,128.51 34.6479,189.51 33.5,250.5C 33.8504,254.565 34.5171,258.565 35.5,262.5C 37.1667,262.5 38.8333,262.5 40.5,262.5C 56.1826,266.102 71.8493,269.436 87.5,272.5C 94.5955,274.45 101.929,275.784 109.5,276.5C 110.5,276.5 111.5,276.5 112.5,276.5C 112.5,276.833 112.5,277.167 112.5,277.5C 112.577,278.75 113.244,279.583 114.5,280C 117.854,280.455 121.187,280.955 124.5,281.5C 124.5,284.167 124.5,286.833 124.5,289.5C 122.152,289.67 119.818,290.003 117.5,290.5C 104.349,287.21 91.0161,284.71 77.5,283C 73.016,282.129 68.6827,280.796 64.5,279C 59.1771,278.501 53.8437,278.334 48.5,278.5C 46.1137,277.08 43.447,276.08 40.5,275.5C 34.7382,274.798 29.0715,273.798 23.5,272.5C 22.0582,271.18 21.3915,269.514 21.5,267.5C 20.17,199.504 20.17,131.504 21.5,63.5C 24.4578,62.4589 27.4578,62.4589 30.5,63.5 Z"/></g>
<g><path style="opacity:1" fill="#e92e21" d="M 96.5,54.5 C 99.1667,56.8333 101.833,59.1667 104.5,61.5C 104.5,62.1667 104.5,62.8333 104.5,63.5C 103.265,63.2786 102.265,62.6119 101.5,61.5C 100.833,62.5 100.167,63.5 99.5,64.5C 98.3554,63.2243 98.3554,61.891 99.5,60.5C 97.9617,58.7567 96.9617,56.7567 96.5,54.5 Z"/></g>
<g><path style="opacity:1" fill="#3f0500" d="M 77.5,63.5 C 78.5,64.1667 79.5,64.8333 80.5,65.5C 81.5,66.8333 82.5,68.1667 83.5,69.5C 80.5,68.5 78.5,66.5 77.5,63.5 Z"/></g>
<g><path style="opacity:1" fill="#9f1411" d="M 80.5,65.5 C 82.9915,67.102 85.4915,68.7687 88,70.5C 89.6572,73.6463 91.4906,76.6463 93.5,79.5C 89.8333,76.5 86.5,73.1667 83.5,69.5C 82.5,68.1667 81.5,66.8333 80.5,65.5 Z"/></g>
<g><path style="opacity:0.501" fill="#9ffae7" d="M 21.5,61.5 C 21.2172,62.2891 20.7172,62.9558 20,63.5C 19.3333,130.833 19.3333,198.167 20,265.5C 20.2784,266.416 20.7784,267.082 21.5,267.5C 21.3915,269.514 22.0582,271.18 23.5,272.5C 22.5041,272.586 21.6708,272.252 21,271.5C 19.4379,269.043 18.4379,266.376 18,263.5C 17.3333,197.833 17.3333,132.167 18,66.5C 18.3333,65.1667 18.6667,63.8333 19,62.5C 19.6708,61.7476 20.5041,61.4142 21.5,61.5 Z"/></g>
<g><path style="opacity:0.997" fill="#22edbd" d="M 21.5,61.5 C 24.1667,61.5 26.8333,61.5 29.5,61.5C 29.8333,61.5 30.1667,61.5 30.5,61.5C 30.5,62.1667 30.5,62.8333 30.5,63.5C 27.4578,62.4589 24.4578,62.4589 21.5,63.5C 20.17,131.504 20.17,199.504 21.5,267.5C 20.7784,267.082 20.2784,266.416 20,265.5C 19.3333,198.167 19.3333,130.833 20,63.5C 20.7172,62.9558 21.2172,62.2891 21.5,61.5 Z"/></g>
<g><path style="opacity:1" fill="#10eac9" d="M 30.5,63.5 C 32.0009,64.7515 33.6675,65.7515 35.5,66.5C 35.3333,129.834 35.5,193.168 36,256.5C 36.3826,257.056 36.8826,257.389 37.5,257.5C 37.9321,258.71 38.5987,259.71 39.5,260.5C 39.8333,261.167 40.1667,261.833 40.5,262.5C 38.8333,262.5 37.1667,262.5 35.5,262.5C 34.5171,258.565 33.8504,254.565 33.5,250.5C 34.6479,189.51 34.8145,128.51 34,67.5C 31.9286,66.8971 30.7619,65.5638 30.5,63.5 Z"/></g>
<g><path style="opacity:1" fill="#09c4b3" d="M 36.5,64.5 C 36.1739,128.875 36.5072,193.208 37.5,257.5C 36.8826,257.389 36.3826,257.056 36,256.5C 35.5,193.168 35.3333,129.834 35.5,66.5C 35.3284,65.5084 35.6618,64.8417 36.5,64.5 Z"/></g>
<g><path style="opacity:1" fill="#00a8a4" d="M 36.5,64.5 C 37.3329,126.332 37.8329,188.332 38,250.5C 38.8256,253.793 39.3256,257.126 39.5,260.5C 38.5987,259.71 37.9321,258.71 37.5,257.5C 36.5072,193.208 36.1739,128.875 36.5,64.5 Z"/></g>
<g><path style="opacity:0.851" fill="#e2453a" d="M 109.5,67.5 C 109.833,67.5 110.167,67.5 110.5,67.5C 114.833,71.1667 118.833,75.1667 122.5,79.5C 120.745,78.9278 119.078,78.0945 117.5,77C 115.276,75.0514 113.276,72.8847 111.5,70.5C 110.914,70.7093 110.414,71.0426 110,71.5C 109.51,70.2068 109.343,68.8734 109.5,67.5 Z"/></g>
<g><path style="opacity:1" fill="#95130c" d="M 93.5,79.5 C 96.1667,80.1667 97.8333,81.8333 98.5,84.5C 96.5,83.1667 94.8333,81.5 93.5,79.5 Z"/></g>
<g><path style="opacity:1" fill="#fa1304" d="M 87.5,45.5 C 87.8333,47.8333 89.1667,49.1667 91.5,49.5C 92.1667,52.1667 93.8333,53.8333 96.5,54.5C 96.9617,56.7567 97.9617,58.7567 99.5,60.5C 98.3554,61.891 98.3554,63.2243 99.5,64.5C 100.167,63.5 100.833,62.5 101.5,61.5C 102.265,62.6119 103.265,63.2786 104.5,63.5C 106.167,64.8333 107.833,66.1667 109.5,67.5C 109.343,68.8734 109.51,70.2068 110,71.5C 110.414,71.0426 110.914,70.7093 111.5,70.5C 113.276,72.8847 115.276,75.0514 117.5,77C 119.078,78.0945 120.745,78.9278 122.5,79.5C 123.167,79.8333 123.833,80.1667 124.5,80.5C 125.167,83.1667 126.833,84.8333 129.5,85.5C 129.5,87.5 130.5,88.5 132.5,88.5C 132.833,91.5 134.5,93.1667 137.5,93.5C 139.167,94.5 140.5,95.8333 141.5,97.5C 142.865,99.8598 144.865,101.527 147.5,102.5C 148.167,105.167 149.833,106.833 152.5,107.5C 152.5,108.833 152.5,110.167 152.5,111.5C 154.685,111.704 156.685,112.37 158.5,113.5C 160.167,114.5 161.5,115.833 162.5,117.5C 163.872,120.534 166.206,122.534 169.5,123.5C 169.5,125.5 170.5,126.5 172.5,126.5C 173.974,128.979 174.974,131.646 175.5,134.5C 178.406,134.957 181.072,135.957 183.5,137.5C 184.911,139.914 186.911,141.581 189.5,142.5C 189.833,144.833 191.167,146.167 193.5,146.5C 193.833,149.5 195.5,151.167 198.5,151.5C 198.5,153.5 199.5,154.5 201.5,154.5C 203.535,158.865 206.869,161.865 211.5,163.5C 212.732,168.218 215.732,171.218 220.5,172.5C 221.5,172.833 222.167,173.5 222.5,174.5C 222.685,176.196 223.519,177.529 225,178.5C 225.499,182.486 225.666,186.486 225.5,190.5C 223.952,190.821 223.285,191.821 223.5,193.5C 222.094,193.973 221.427,194.973 221.5,196.5C 221.573,198.027 220.906,199.027 219.5,199.5C 215.799,202.22 213.466,205.887 212.5,210.5C 212.672,211.492 212.338,212.158 211.5,212.5C 209.107,213.353 207.774,215.019 207.5,217.5C 206.5,217.5 205.5,217.5 204.5,217.5C 204.5,219.5 204.5,221.5 204.5,223.5C 204.5,224.167 204.167,224.5 203.5,224.5C 200.899,226.939 198.399,229.605 196,232.5C 192.719,238.828 189.552,245.161 186.5,251.5C 186.573,253.027 185.906,254.027 184.5,254.5C 183.167,254.5 181.833,254.5 180.5,254.5C 180.5,256.5 180.5,258.5 180.5,260.5C 176.609,261.727 174.609,264.394 174.5,268.5C 172.139,268.674 169.806,269.007 167.5,269.5C 166.5,269.5 165.5,269.5 164.5,269.5C 162.914,266.784 163.247,264.45 165.5,262.5C 166.962,260.745 168.795,259.412 171,258.5C 171.238,253.327 173.238,248.66 177,244.5C 177.561,241.721 178.394,239.054 179.5,236.5C 181.166,233.172 182.832,229.838 184.5,226.5C 186.104,225.713 186.771,224.38 186.5,222.5C 188.935,221.73 190.269,220.063 190.5,217.5C 192.408,216.514 193.408,214.848 193.5,212.5C 194.674,211.486 195.34,210.153 195.5,208.5C 195.5,207.833 195.5,207.167 195.5,206.5C 198.323,205.008 199.99,202.674 200.5,199.5C 200.5,196.833 200.5,194.167 200.5,191.5C 198.649,185.648 194.983,181.315 189.5,178.5C 188.139,176.473 186.473,174.806 184.5,173.5C 180.547,168.538 176.547,163.538 172.5,158.5C 171.423,157.295 170.09,156.628 168.5,156.5C 165.5,151.5 161.5,147.5 156.5,144.5C 154.913,141.732 153.08,139.065 151,136.5C 149.549,134.536 147.716,133.203 145.5,132.5C 145.383,128.751 143.383,126.751 139.5,126.5C 136.5,121.5 132.5,117.5 127.5,114.5C 126.5,111.5 124.5,109.5 121.5,108.5C 120.627,106.114 119.127,104.114 117,102.5C 116.517,101.552 116.351,100.552 116.5,99.5C 114.315,99.2964 112.315,98.6298 110.5,97.5C 110.167,96.8333 109.833,96.1667 109.5,95.5C 108.167,95.5 107.5,94.8333 107.5,93.5C 106.833,90.8333 105.167,89.1667 102.5,88.5C 102.167,86.1667 100.833,84.8333 98.5,84.5C 97.8333,81.8333 96.1667,80.1667 93.5,79.5C 91.4906,76.6463 89.6572,73.6463 88,70.5C 85.4915,68.7687 82.9915,67.102 80.5,65.5C 78.2015,62.0322 75.7015,58.6989 73,55.5C 72.2938,51.1132 72.4604,46.7799 73.5,42.5C 74.3121,41.0069 75.6455,40.3402 77.5,40.5C 81.094,41.7989 84.4273,43.4656 87.5,45.5 Z"/></g>
<g><path style="opacity:0.22" fill="#f08a7b" d="M 124.5,80.5 C 126.5,81.8333 128.167,83.5 129.5,85.5C 126.833,84.8333 125.167,83.1667 124.5,80.5 Z"/></g>
<g><path style="opacity:1" fill="#941310" d="M 98.5,84.5 C 100.833,84.8333 102.167,86.1667 102.5,88.5C 100.736,87.674 99.4023,86.3407 98.5,84.5 Z"/></g>
<g><path style="opacity:0.345" fill="#ee7b6f" d="M 129.5,85.5 C 130.833,86.1667 131.833,87.1667 132.5,88.5C 130.5,88.5 129.5,87.5 129.5,85.5 Z"/></g>
<g><path style="opacity:1" fill="#a61812" d="M 102.5,88.5 C 105.167,89.1667 106.833,90.8333 107.5,93.5C 105.5,92.1667 103.833,90.5 102.5,88.5 Z"/></g>
<g><path style="opacity:0.561" fill="#e45d51" d="M 132.5,88.5 C 134.5,89.8333 136.167,91.5 137.5,93.5C 134.5,93.1667 132.833,91.5 132.5,88.5 Z"/></g>
<g><path style="opacity:1" fill="#8e150f" d="M 107.5,93.5 C 108.833,93.5 109.5,94.1667 109.5,95.5C 109.5,94.1667 108.833,93.5 107.5,93.5 Z"/></g>
<g><path style="opacity:0.267" fill="#f08479" d="M 141.5,97.5 C 144.109,98.4431 146.109,100.11 147.5,102.5C 144.865,101.527 142.865,99.8598 141.5,97.5 Z"/></g>
<g><path style="opacity:1" fill="#8d100d" d="M 110.5,97.5 C 112.315,98.6298 114.315,99.2964 116.5,99.5C 116.351,100.552 116.517,101.552 117,102.5C 119.127,104.114 120.627,106.114 121.5,108.5C 117.5,105.167 113.833,101.5 110.5,97.5 Z"/></g>
<g><path style="opacity:0.329" fill="#ee8175" d="M 147.5,102.5 C 149.5,103.833 151.167,105.5 152.5,107.5C 149.833,106.833 148.167,105.167 147.5,102.5 Z"/></g>
<g><path style="opacity:1" fill="#88110d" d="M 121.5,108.5 C 124.5,109.5 126.5,111.5 127.5,114.5C 125.167,112.833 123.167,110.833 121.5,108.5 Z"/></g>
<g><path style="opacity:0.953" fill="#e44f42" d="M 152.5,107.5 C 154.833,109.167 156.833,111.167 158.5,113.5C 156.685,112.37 154.685,111.704 152.5,111.5C 152.5,110.167 152.5,108.833 152.5,107.5 Z"/></g>
<g><path style="opacity:1" fill="#98130b" d="M 127.5,114.5 C 132.5,117.5 136.5,121.5 139.5,126.5C 135.167,122.833 131.167,118.833 127.5,114.5 Z"/></g>
<g><path style="opacity:0.62" fill="#e66a5b" d="M 162.5,117.5 C 165.447,118.781 167.781,120.781 169.5,123.5C 166.206,122.534 163.872,120.534 162.5,117.5 Z"/></g>
<g><path style="opacity:0.427" fill="#f67877" d="M 169.5,123.5 C 170.833,124.167 171.833,125.167 172.5,126.5C 170.5,126.5 169.5,125.5 169.5,123.5 Z"/></g>
<g><path style="opacity:1" fill="#bb1a10" d="M 139.5,126.5 C 143.383,126.751 145.383,128.751 145.5,132.5C 144.395,131.4 143.062,130.733 141.5,130.5C 141.267,128.938 140.6,127.605 139.5,126.5 Z"/></g>
<g><path style="opacity:1" fill="#380500" d="M 141.5,130.5 C 143.062,130.733 144.395,131.4 145.5,132.5C 146.833,134.167 148.167,135.833 149.5,137.5C 146.21,135.876 143.543,133.543 141.5,130.5 Z"/></g>
<g><path style="opacity:1" fill="#e84535" d="M 172.5,126.5 C 176.167,129.833 179.833,133.167 183.5,136.5C 183.5,136.833 183.5,137.167 183.5,137.5C 181.072,135.957 178.406,134.957 175.5,134.5C 174.974,131.646 173.974,128.979 172.5,126.5 Z"/></g>
<g><path style="opacity:1" fill="#0c7074" d="M 54.5,87.5 C 55.5682,116.355 56.5682,145.355 57.5,174.5C 57.5,177.5 57.5,180.5 57.5,183.5C 57.1667,183.5 56.8333,183.5 56.5,183.5C 54.9185,151.525 54.2518,119.525 54.5,87.5 Z"/></g>
<g><path style="opacity:1" fill="#8f120d" d="M 145.5,132.5 C 147.716,133.203 149.549,134.536 151,136.5C 153.08,139.065 154.913,141.732 156.5,144.5C 153.833,142.5 151.5,140.167 149.5,137.5C 148.167,135.833 146.833,134.167 145.5,132.5 Z"/></g>
<g><path style="opacity:0.247" fill="#f3948a" d="M 183.5,136.5 C 185.833,138.167 187.833,140.167 189.5,142.5C 186.911,141.581 184.911,139.914 183.5,137.5C 183.5,137.167 183.5,136.833 183.5,136.5 Z"/></g>
<g><path style="opacity:0.349" fill="#eb827b" d="M 189.5,142.5 C 191.167,143.5 192.5,144.833 193.5,146.5C 191.167,146.167 189.833,144.833 189.5,142.5 Z"/></g>
<g><path style="opacity:1" fill="#940d0d" d="M 156.5,144.5 C 161.5,147.5 165.5,151.5 168.5,156.5C 164.167,152.833 160.167,148.833 156.5,144.5 Z"/></g>
<g><path style="opacity:0.463" fill="#e16355" d="M 193.5,146.5 C 195.5,147.833 197.167,149.5 198.5,151.5C 195.5,151.167 193.833,149.5 193.5,146.5 Z"/></g>
<g><path style="opacity:0.51" fill="#df655a" d="M 198.5,151.5 C 199.833,152.167 200.833,153.167 201.5,154.5C 199.5,154.5 198.5,153.5 198.5,151.5 Z"/></g>
<g><path style="opacity:0.651" fill="#e35d4f" d="M 201.5,154.5 C 205.252,157.041 208.585,160.041 211.5,163.5C 206.869,161.865 203.535,158.865 201.5,154.5 Z"/></g>
<g><path style="opacity:1" fill="#7e0b0c" d="M 168.5,156.5 C 170.09,156.628 171.423,157.295 172.5,158.5C 176.547,163.538 180.547,168.538 184.5,173.5C 178.462,168.463 173.129,162.797 168.5,156.5 Z"/></g>
<g><path style="opacity:0.808" fill="#e34f42" d="M 211.5,163.5 C 214.833,166.167 217.833,169.167 220.5,172.5C 215.732,171.218 212.732,168.218 211.5,163.5 Z"/></g>
<g><path style="opacity:1" fill="#84100d" d="M 189.5,178.5 C 194.983,181.315 198.649,185.648 200.5,191.5C 197.265,186.921 193.599,182.588 189.5,178.5 Z"/></g>
<g><path style="opacity:0.798" fill="#e5584a" d="M 222.5,174.5 C 227.189,177.988 228.689,182.655 227,188.5C 226.722,189.416 226.222,190.082 225.5,190.5C 225.666,186.486 225.499,182.486 225,178.5C 223.519,177.529 222.685,176.196 222.5,174.5 Z"/></g>
<g><path style="opacity:0.322" fill="#e66f5d" d="M 225.5,190.5 C 225.573,192.027 224.906,193.027 223.5,193.5C 223.285,191.821 223.952,190.821 225.5,190.5 Z"/></g>
<g><path style="opacity:0.09" fill="#f4807c" d="M 223.5,193.5 C 223.573,195.027 222.906,196.027 221.5,196.5C 221.427,194.973 222.094,193.973 223.5,193.5 Z"/></g>
<g><path style="opacity:0.525" fill="#e36152" d="M 219.5,199.5 C 217.913,203.683 215.579,207.35 212.5,210.5C 213.466,205.887 215.799,202.22 219.5,199.5 Z"/></g>
<g><path style="opacity:1" fill="#760c0c" d="M 200.5,199.5 C 199.99,202.674 198.323,205.008 195.5,206.5C 196.852,203.835 198.518,201.502 200.5,199.5 Z"/></g>
<g><path style="opacity:1" fill="#69090b" d="M 195.5,208.5 C 195.34,210.153 194.674,211.486 193.5,212.5C 192.833,212.833 192.167,213.167 191.5,213.5C 192.136,211.205 193.469,209.539 195.5,208.5 Z"/></g>
<g><path style="opacity:1" fill="#c51b18" d="M 193.5,212.5 C 193.408,214.848 192.408,216.514 190.5,217.5C 190.833,216.167 191.167,214.833 191.5,213.5C 192.167,213.167 192.833,212.833 193.5,212.5 Z"/></g>
<g><path style="opacity:0.971" fill="#ee5e4b" d="M 211.5,212.5 C 209.554,216.439 207.221,220.106 204.5,223.5C 204.5,221.5 204.5,219.5 204.5,217.5C 205.5,217.5 206.5,217.5 207.5,217.5C 207.774,215.019 209.107,213.353 211.5,212.5 Z"/></g>
<g><path style="opacity:1" fill="#095c60" d="M 57.5,174.5 C 58.7284,190.987 59.3951,207.654 59.5,224.5C 58.2654,211.016 57.5987,197.349 57.5,183.5C 57.5,180.5 57.5,177.5 57.5,174.5 Z"/></g>
<g><path style="opacity:1" fill="#710708" d="M 190.5,217.5 C 190.269,220.063 188.935,221.73 186.5,222.5C 187.136,220.205 188.469,218.539 190.5,217.5 Z"/></g>
<g><path style="opacity:1" fill="#6b0502" d="M 186.5,222.5 C 186.771,224.38 186.104,225.713 184.5,226.5C 184.66,224.847 185.326,223.514 186.5,222.5 Z"/></g>
<g><path style="opacity:1" fill="#560303" d="M 184.5,226.5 C 182.832,229.838 181.166,233.172 179.5,236.5C 179.167,236.5 178.833,236.5 178.5,236.5C 179.579,232.575 181.579,229.242 184.5,226.5 Z"/></g>
<g><path style="opacity:0.447" fill="#e66656" d="M 203.5,224.5 C 198.58,234.014 192.914,243.014 186.5,251.5C 189.552,245.161 192.719,238.828 196,232.5C 198.399,229.605 200.899,226.939 203.5,224.5 Z"/></g>
<g><path style="opacity:1" fill="#c8160f" d="M 178.5,236.5 C 178.833,236.5 179.167,236.5 179.5,236.5C 178.394,239.054 177.561,241.721 177,244.5C 173.238,248.66 171.238,253.327 171,258.5C 168.795,259.412 166.962,260.745 165.5,262.5C 165.5,261.833 165.5,261.167 165.5,260.5C 166.167,258.833 166.833,257.167 167.5,255.5C 168.906,255.027 169.573,254.027 169.5,252.5C 173.386,247.627 176.386,242.294 178.5,236.5 Z"/></g>
<g><path style="opacity:1" fill="#0b5e5f" d="M 59.5,231.5 C 60.0615,238.121 61.0615,244.788 62.5,251.5C 61.0337,250.653 60.2004,249.32 60,247.5C 59.5006,242.177 59.334,236.844 59.5,231.5 Z"/></g>
<g><path style="opacity:1" fill="#470101" d="M 169.5,252.5 C 169.573,254.027 168.906,255.027 167.5,255.5C 167.427,253.973 168.094,252.973 169.5,252.5 Z"/></g>
<g><path style="opacity:0.961" fill="#f15141" d="M 184.5,254.5 C 183.66,256.853 182.326,258.853 180.5,260.5C 180.5,258.5 180.5,256.5 180.5,254.5C 181.833,254.5 183.167,254.5 184.5,254.5 Z"/></g>
<g><path style="opacity:1" fill="#09a3a5" d="M 56.5,183.5 C 56.8333,183.5 57.1667,183.5 57.5,183.5C 57.5987,197.349 58.2654,211.016 59.5,224.5C 59.5,226.833 59.5,229.167 59.5,231.5C 59.334,236.844 59.5006,242.177 60,247.5C 60.2004,249.32 61.0337,250.653 62.5,251.5C 63.9774,253.807 65.9774,255.64 68.5,257C 78.8326,258.562 88.8326,261.062 98.5,264.5C 98.5113,268.352 96.5113,270.185 92.5,270C 91.7476,270.671 91.4142,271.504 91.5,272.5C 90.1667,272.5 88.8333,272.5 87.5,272.5C 71.8493,269.436 56.1826,266.102 40.5,262.5C 40.1667,261.833 39.8333,261.167 39.5,260.5C 45.1265,261.072 50.4598,262.572 55.5,265C 62.8333,265.667 70.1667,265.667 77.5,265C 76.1667,264.333 74.8333,263.667 73.5,263C 74.6405,262.259 74.6405,261.425 73.5,260.5C 66.1691,259.736 61.0024,256.07 58,249.5C 56.3319,227.451 55.8319,205.451 56.5,183.5 Z"/></g>
<g><path style="opacity:0.847" fill="#e65d4c" d="M 180.5,260.5 C 178.958,268.098 174.625,271.098 167.5,269.5C 169.806,269.007 172.139,268.674 174.5,268.5C 174.609,264.394 176.609,261.727 180.5,260.5 Z"/></g>
<g><path style="opacity:1" fill="#14a1a9" d="M 98.5,264.5 C 113.677,267.377 128.677,271.044 143.5,275.5C 141.351,281.241 137.351,283.241 131.5,281.5C 131.5,280.833 131.167,280.5 130.5,280.5C 130.586,279.504 130.252,278.671 129.5,278C 123.865,277.096 118.198,276.596 112.5,276.5C 111.5,276.5 110.5,276.5 109.5,276.5C 109.389,275.883 109.056,275.383 108.5,275C 102.91,273.581 97.2433,272.748 91.5,272.5C 91.4142,271.504 91.7476,270.671 92.5,270C 96.5113,270.185 98.5113,268.352 98.5,264.5 Z"/></g>
<g><path style="opacity:0.584" fill="#9d342e" d="M 165.5,260.5 C 165.5,261.167 165.5,261.833 165.5,262.5C 163.247,264.45 162.914,266.784 164.5,269.5C 163.167,269.5 161.833,269.5 160.5,269.5C 160.884,265.728 162.55,262.728 165.5,260.5 Z"/></g>
<g><path style="opacity:1" fill="#03beb1" d="M 87.5,272.5 C 88.8333,272.5 90.1667,272.5 91.5,272.5C 97.2433,272.748 102.91,273.581 108.5,275C 109.056,275.383 109.389,275.883 109.5,276.5C 101.929,275.784 94.5955,274.45 87.5,272.5 Z"/></g>
<g><path style="opacity:0.804" fill="#72f1d7" d="M 23.5,272.5 C 29.0715,273.798 34.7382,274.798 40.5,275.5C 43.447,276.08 46.1137,277.08 48.5,278.5C 41.7876,277.658 35.1209,276.491 28.5,275C 26.5087,274.626 24.842,273.793 23.5,272.5 Z"/></g>
<g><path style="opacity:1" fill="#01b2a7" d="M 112.5,277.5 C 112.5,277.167 112.5,276.833 112.5,276.5C 118.198,276.596 123.865,277.096 129.5,278C 130.252,278.671 130.586,279.504 130.5,280.5C 124.477,279.48 118.477,278.48 112.5,277.5 Z"/></g>
<g><path style="opacity:1" fill="#3bedca" d="M 112.5,277.5 C 118.477,278.48 124.477,279.48 130.5,280.5C 131.167,280.5 131.5,280.833 131.5,281.5C 130.504,281.414 129.671,281.748 129,282.5C 127.974,285.239 126.474,287.572 124.5,289.5C 124.5,286.833 124.5,284.167 124.5,281.5C 121.187,280.955 117.854,280.455 114.5,280C 113.244,279.583 112.577,278.75 112.5,277.5 Z"/></g>
<g><path style="opacity:1" fill="#64eecf" d="M 48.5,278.5 C 53.8437,278.334 59.1771,278.501 64.5,279C 68.6827,280.796 73.016,282.129 77.5,283C 91.0161,284.71 104.349,287.21 117.5,290.5C 119.818,290.003 122.152,289.67 124.5,289.5C 122.987,291.241 120.987,292.241 118.5,292.5C 94.9911,288.031 71.6577,283.364 48.5,278.5 Z"/></g>
</svg>
